<mxfile host="app.diagrams.net" agent="Mozilla/5.0 (Windows NT 10.0; Win64; x64) AppleWebKit/537.36 (KHTML, like Gecko) Chrome/134.0.0.0 Safari/537.36" version="26.1.0">
  <diagram name="Trang-1" id="pmsEXaF8TN7wZfqRCfoC">
    <mxGraphModel dx="1909" dy="1035" grid="0" gridSize="10" guides="1" tooltips="1" connect="1" arrows="1" fold="1" page="1" pageScale="1" pageWidth="827" pageHeight="1169" math="0" shadow="0">
      <root>
        <mxCell id="0" />
        <mxCell id="1" parent="0" />
        <mxCell id="VS9WFhDuNjoJBq92oPgR-1" value="" style="rounded=1;whiteSpace=wrap;html=1;strokeColor=default;fillColor=none;arcSize=8;dashed=1;" parent="1" vertex="1">
          <mxGeometry x="792" y="162" width="639" height="503" as="geometry" />
        </mxCell>
        <mxCell id="2ead1JA012GjD3VB0AYQ-26" value="" style="rounded=1;whiteSpace=wrap;html=1;strokeColor=default;fillColor=none;arcSize=8;dashed=1;" parent="1" vertex="1">
          <mxGeometry x="14" y="162" width="720" height="500" as="geometry" />
        </mxCell>
        <mxCell id="xqiuKEbKWLVrD_F_vzsZ-1" value="crm_cust_info" style="swimlane;fontStyle=0;childLayout=stackLayout;horizontal=1;startSize=30;horizontalStack=0;resizeParent=1;resizeParentMax=0;resizeLast=0;collapsible=1;marginBottom=0;whiteSpace=wrap;html=1;rounded=1;swimlaneLine=1;fillColor=#dae8fc;strokeColor=#6c8ebf;fontSize=24;arcSize=14;" parent="1" vertex="1">
          <mxGeometry x="431" y="439" width="237" height="146" as="geometry" />
        </mxCell>
        <mxCell id="xqiuKEbKWLVrD_F_vzsZ-2" value="cst_id" style="text;align=left;verticalAlign=middle;spacingLeft=4;spacingRight=4;overflow=hidden;points=[[0,0.5],[1,0.5]];portConstraint=eastwest;rotatable=0;whiteSpace=wrap;html=1;fontSize=24;" parent="xqiuKEbKWLVrD_F_vzsZ-1" vertex="1">
          <mxGeometry y="30" width="237" height="40" as="geometry" />
        </mxCell>
        <mxCell id="2ead1JA012GjD3VB0AYQ-12" value="cst_key" style="text;align=left;verticalAlign=middle;spacingLeft=4;spacingRight=4;overflow=hidden;points=[[0,0.5],[1,0.5]];portConstraint=eastwest;rotatable=0;whiteSpace=wrap;html=1;fontSize=24;" parent="xqiuKEbKWLVrD_F_vzsZ-1" vertex="1">
          <mxGeometry y="70" width="237" height="40" as="geometry" />
        </mxCell>
        <mxCell id="8cTHT5fYYTfpAbhlSFfg-5" value="&lt;font style=&quot;font-size: 20px;&quot;&gt;&lt;b&gt;CUSTOMER&lt;/b&gt;&lt;/font&gt;" style="text;html=1;strokeColor=#82b366;fillColor=#d5e8d4;align=center;verticalAlign=middle;whiteSpace=wrap;overflow=hidden;" parent="xqiuKEbKWLVrD_F_vzsZ-1" vertex="1">
          <mxGeometry y="110" width="237" height="36" as="geometry" />
        </mxCell>
        <mxCell id="xqiuKEbKWLVrD_F_vzsZ-5" value="&lt;font style=&quot;font-size: 16px;&quot;&gt;Customer Information&lt;/font&gt;" style="text;html=1;align=center;verticalAlign=middle;whiteSpace=wrap;rounded=0;" parent="1" vertex="1">
          <mxGeometry x="436" y="409" width="203" height="30" as="geometry" />
        </mxCell>
        <mxCell id="xqiuKEbKWLVrD_F_vzsZ-8" value="&lt;font style=&quot;font-size: 16px;&quot;&gt;Current &amp;amp; History product infomation&lt;/font&gt;" style="text;html=1;align=center;verticalAlign=middle;whiteSpace=wrap;rounded=0;" parent="1" vertex="1">
          <mxGeometry x="428" y="221" width="225" height="30" as="geometry" />
        </mxCell>
        <mxCell id="2ead1JA012GjD3VB0AYQ-1" value="crm_sales_details" style="swimlane;fontStyle=0;childLayout=stackLayout;horizontal=1;startSize=30;horizontalStack=0;resizeParent=1;resizeParentMax=0;resizeLast=0;collapsible=1;marginBottom=0;whiteSpace=wrap;html=1;rounded=1;swimlaneLine=1;fillColor=#dae8fc;strokeColor=#6c8ebf;fontSize=24;arcSize=14;" parent="1" vertex="1">
          <mxGeometry x="43" y="317" width="243" height="146" as="geometry" />
        </mxCell>
        <mxCell id="2ead1JA012GjD3VB0AYQ-5" value="sls_prd_key" style="text;align=left;verticalAlign=middle;spacingLeft=4;spacingRight=4;overflow=hidden;points=[[0,0.5],[1,0.5]];portConstraint=eastwest;rotatable=0;whiteSpace=wrap;html=1;fontSize=24;" parent="2ead1JA012GjD3VB0AYQ-1" vertex="1">
          <mxGeometry y="30" width="243" height="40" as="geometry" />
        </mxCell>
        <mxCell id="2ead1JA012GjD3VB0AYQ-2" value="sls_cust_id" style="text;align=left;verticalAlign=middle;spacingLeft=4;spacingRight=4;overflow=hidden;points=[[0,0.5],[1,0.5]];portConstraint=eastwest;rotatable=0;whiteSpace=wrap;html=1;fontSize=24;" parent="2ead1JA012GjD3VB0AYQ-1" vertex="1">
          <mxGeometry y="70" width="243" height="40" as="geometry" />
        </mxCell>
        <mxCell id="8cTHT5fYYTfpAbhlSFfg-8" value="&lt;font style=&quot;font-size: 20px;&quot;&gt;&lt;b&gt;SALE&lt;/b&gt;&lt;/font&gt;" style="text;html=1;strokeColor=#9673a6;fillColor=#e1d5e7;align=center;verticalAlign=middle;whiteSpace=wrap;overflow=hidden;" parent="2ead1JA012GjD3VB0AYQ-1" vertex="1">
          <mxGeometry y="110" width="243" height="36" as="geometry" />
        </mxCell>
        <mxCell id="2ead1JA012GjD3VB0AYQ-3" value="&lt;font style=&quot;font-size: 16px;&quot;&gt;Transactional Records about&lt;/font&gt;&lt;div&gt;&lt;font style=&quot;font-size: 16px;&quot;&gt;Sales &amp;amp; Orders&lt;/font&gt;&lt;/div&gt;" style="text;html=1;align=center;verticalAlign=middle;whiteSpace=wrap;rounded=0;" parent="1" vertex="1">
          <mxGeometry x="51" y="281" width="235" height="30" as="geometry" />
        </mxCell>
        <mxCell id="2ead1JA012GjD3VB0AYQ-6" style="edgeStyle=orthogonalEdgeStyle;rounded=0;orthogonalLoop=1;jettySize=auto;html=1;entryX=0;entryY=0.5;entryDx=0;entryDy=0;" parent="1" source="2ead1JA012GjD3VB0AYQ-2" target="xqiuKEbKWLVrD_F_vzsZ-2" edge="1">
          <mxGeometry relative="1" as="geometry" />
        </mxCell>
        <mxCell id="2ead1JA012GjD3VB0AYQ-7" style="edgeStyle=orthogonalEdgeStyle;rounded=0;orthogonalLoop=1;jettySize=auto;html=1;entryX=0;entryY=0.5;entryDx=0;entryDy=0;" parent="1" source="2ead1JA012GjD3VB0AYQ-5" target="xqiuKEbKWLVrD_F_vzsZ-7" edge="1">
          <mxGeometry relative="1" as="geometry">
            <Array as="points">
              <mxPoint x="351" y="367" />
              <mxPoint x="351" y="307" />
            </Array>
          </mxGeometry>
        </mxCell>
        <mxCell id="2ead1JA012GjD3VB0AYQ-8" value="erp_cust_az12" style="swimlane;fontStyle=0;childLayout=stackLayout;horizontal=1;startSize=30;horizontalStack=0;resizeParent=1;resizeParentMax=0;resizeLast=0;collapsible=1;marginBottom=0;whiteSpace=wrap;html=1;rounded=1;swimlaneLine=1;fillColor=#fff2cc;strokeColor=#d6b656;fontSize=24;arcSize=14;" parent="1" vertex="1">
          <mxGeometry x="1012.5" y="378" width="238.5" height="106" as="geometry" />
        </mxCell>
        <mxCell id="2ead1JA012GjD3VB0AYQ-9" value="cid" style="text;align=left;verticalAlign=middle;spacingLeft=4;spacingRight=4;overflow=hidden;points=[[0,0.5],[1,0.5]];portConstraint=eastwest;rotatable=0;whiteSpace=wrap;html=1;fontSize=24;" parent="2ead1JA012GjD3VB0AYQ-8" vertex="1">
          <mxGeometry y="30" width="238.5" height="40" as="geometry" />
        </mxCell>
        <mxCell id="8cTHT5fYYTfpAbhlSFfg-6" value="&lt;font style=&quot;font-size: 20px;&quot;&gt;&lt;b&gt;CUSTOMER&lt;/b&gt;&lt;/font&gt;" style="text;html=1;strokeColor=#82b366;fillColor=#d5e8d4;align=center;verticalAlign=middle;whiteSpace=wrap;overflow=hidden;" parent="2ead1JA012GjD3VB0AYQ-8" vertex="1">
          <mxGeometry y="70" width="238.5" height="36" as="geometry" />
        </mxCell>
        <mxCell id="2ead1JA012GjD3VB0AYQ-10" value="&lt;span style=&quot;font-size: 16px;&quot;&gt;Extra Customer Information (Birthdate)&lt;/span&gt;" style="text;html=1;align=center;verticalAlign=middle;whiteSpace=wrap;rounded=0;" parent="1" vertex="1">
          <mxGeometry x="979" y="342" width="287" height="30" as="geometry" />
        </mxCell>
        <mxCell id="2ead1JA012GjD3VB0AYQ-13" style="edgeStyle=orthogonalEdgeStyle;rounded=0;orthogonalLoop=1;jettySize=auto;html=1;entryX=1;entryY=0.5;entryDx=0;entryDy=0;" parent="1" source="2ead1JA012GjD3VB0AYQ-9" target="2ead1JA012GjD3VB0AYQ-12" edge="1">
          <mxGeometry relative="1" as="geometry" />
        </mxCell>
        <mxCell id="2ead1JA012GjD3VB0AYQ-14" style="edgeStyle=orthogonalEdgeStyle;rounded=0;orthogonalLoop=1;jettySize=auto;html=1;exitX=0.5;exitY=1;exitDx=0;exitDy=0;" parent="1" source="2ead1JA012GjD3VB0AYQ-10" target="2ead1JA012GjD3VB0AYQ-10" edge="1">
          <mxGeometry relative="1" as="geometry" />
        </mxCell>
        <mxCell id="2ead1JA012GjD3VB0AYQ-15" value="erp_loc_a101" style="swimlane;fontStyle=0;childLayout=stackLayout;horizontal=1;startSize=30;horizontalStack=0;resizeParent=1;resizeParentMax=0;resizeLast=0;collapsible=1;marginBottom=0;whiteSpace=wrap;html=1;rounded=1;swimlaneLine=1;fillColor=#fff2cc;strokeColor=#d6b656;fontSize=24;arcSize=14;" parent="1" vertex="1">
          <mxGeometry x="1012.5" y="545" width="233.5" height="106" as="geometry" />
        </mxCell>
        <mxCell id="2ead1JA012GjD3VB0AYQ-16" value="cid" style="text;align=left;verticalAlign=middle;spacingLeft=4;spacingRight=4;overflow=hidden;points=[[0,0.5],[1,0.5]];portConstraint=eastwest;rotatable=0;whiteSpace=wrap;html=1;fontSize=24;" parent="2ead1JA012GjD3VB0AYQ-15" vertex="1">
          <mxGeometry y="30" width="233.5" height="40" as="geometry" />
        </mxCell>
        <mxCell id="8cTHT5fYYTfpAbhlSFfg-7" value="&lt;font style=&quot;font-size: 20px;&quot;&gt;&lt;b&gt;CUSTOMER&lt;/b&gt;&lt;/font&gt;" style="text;html=1;strokeColor=#82b366;fillColor=#d5e8d4;align=center;verticalAlign=middle;whiteSpace=wrap;overflow=hidden;" parent="2ead1JA012GjD3VB0AYQ-15" vertex="1">
          <mxGeometry y="70" width="233.5" height="36" as="geometry" />
        </mxCell>
        <mxCell id="2ead1JA012GjD3VB0AYQ-17" value="&lt;span style=&quot;font-size: 16px;&quot;&gt;Location of Customer (Country)&lt;/span&gt;" style="text;html=1;align=center;verticalAlign=middle;whiteSpace=wrap;rounded=0;" parent="1" vertex="1">
          <mxGeometry x="979" y="505" width="287" height="30" as="geometry" />
        </mxCell>
        <mxCell id="2ead1JA012GjD3VB0AYQ-18" style="edgeStyle=orthogonalEdgeStyle;rounded=0;orthogonalLoop=1;jettySize=auto;html=1;exitX=0.5;exitY=1;exitDx=0;exitDy=0;" parent="1" edge="1">
          <mxGeometry relative="1" as="geometry">
            <mxPoint x="1122.5" y="539.0000000000002" as="sourcePoint" />
            <mxPoint x="1122.5" y="539.0000000000002" as="targetPoint" />
          </mxGeometry>
        </mxCell>
        <mxCell id="2ead1JA012GjD3VB0AYQ-19" style="edgeStyle=orthogonalEdgeStyle;rounded=0;orthogonalLoop=1;jettySize=auto;html=1;entryX=1;entryY=0.5;entryDx=0;entryDy=0;" parent="1" source="2ead1JA012GjD3VB0AYQ-16" target="2ead1JA012GjD3VB0AYQ-12" edge="1">
          <mxGeometry relative="1" as="geometry" />
        </mxCell>
        <mxCell id="2ead1JA012GjD3VB0AYQ-20" value="erp_px_cat_g1v2" style="swimlane;fontStyle=0;childLayout=stackLayout;horizontal=1;startSize=30;horizontalStack=0;resizeParent=1;resizeParentMax=0;resizeLast=0;collapsible=1;marginBottom=0;whiteSpace=wrap;html=1;rounded=1;swimlaneLine=1;fillColor=#fff2cc;strokeColor=#d6b656;fontSize=24;arcSize=14;" parent="1" vertex="1">
          <mxGeometry x="1012.5" y="218" width="239.5" height="106" as="geometry" />
        </mxCell>
        <mxCell id="2ead1JA012GjD3VB0AYQ-21" value="id" style="text;align=left;verticalAlign=middle;spacingLeft=4;spacingRight=4;overflow=hidden;points=[[0,0.5],[1,0.5]];portConstraint=eastwest;rotatable=0;whiteSpace=wrap;html=1;fontSize=24;" parent="2ead1JA012GjD3VB0AYQ-20" vertex="1">
          <mxGeometry y="30" width="239.5" height="40" as="geometry" />
        </mxCell>
        <mxCell id="8cTHT5fYYTfpAbhlSFfg-4" value="&lt;font style=&quot;font-size: 20px;&quot;&gt;&lt;b&gt;PRODUCT&lt;/b&gt;&lt;/font&gt;" style="text;html=1;strokeColor=#b85450;fillColor=#f8cecc;align=center;verticalAlign=middle;whiteSpace=wrap;overflow=hidden;" parent="2ead1JA012GjD3VB0AYQ-20" vertex="1">
          <mxGeometry y="70" width="239.5" height="36" as="geometry" />
        </mxCell>
        <mxCell id="2ead1JA012GjD3VB0AYQ-22" value="&lt;span style=&quot;font-size: 16px;&quot;&gt;Product Categories&lt;/span&gt;" style="text;html=1;align=center;verticalAlign=middle;whiteSpace=wrap;rounded=0;" parent="1" vertex="1">
          <mxGeometry x="979" y="185" width="287" height="30" as="geometry" />
        </mxCell>
        <mxCell id="2ead1JA012GjD3VB0AYQ-23" style="edgeStyle=orthogonalEdgeStyle;rounded=0;orthogonalLoop=1;jettySize=auto;html=1;exitX=0.5;exitY=1;exitDx=0;exitDy=0;" parent="1" source="2ead1JA012GjD3VB0AYQ-22" target="2ead1JA012GjD3VB0AYQ-22" edge="1">
          <mxGeometry relative="1" as="geometry" />
        </mxCell>
        <mxCell id="2ead1JA012GjD3VB0AYQ-24" style="edgeStyle=orthogonalEdgeStyle;rounded=0;orthogonalLoop=1;jettySize=auto;html=1;entryX=1;entryY=0.5;entryDx=0;entryDy=0;" parent="1" source="2ead1JA012GjD3VB0AYQ-21" target="xqiuKEbKWLVrD_F_vzsZ-7" edge="1">
          <mxGeometry relative="1" as="geometry" />
        </mxCell>
        <mxCell id="2ead1JA012GjD3VB0AYQ-27" value="&lt;font style=&quot;font-size: 24px;&quot;&gt;ERM&lt;/font&gt;" style="rounded=1;whiteSpace=wrap;html=1;fillColor=#dae8fc;strokeColor=#6c8ebf;arcSize=21;" parent="1" vertex="1">
          <mxGeometry x="292.25" y="139" width="163.5" height="37" as="geometry" />
        </mxCell>
        <mxCell id="VS9WFhDuNjoJBq92oPgR-2" value="&lt;font style=&quot;font-size: 24px;&quot;&gt;ERP&lt;/font&gt;" style="rounded=1;whiteSpace=wrap;html=1;fillColor=#fff2cc;strokeColor=#d6b656;" parent="1" vertex="1">
          <mxGeometry x="1037" y="139" width="140" height="36" as="geometry" />
        </mxCell>
        <mxCell id="8cTHT5fYYTfpAbhlSFfg-2" value="&lt;font style=&quot;font-size: 28px;&quot;&gt;&lt;b&gt;Integration Model&lt;/b&gt;&lt;/font&gt;" style="text;html=1;align=center;verticalAlign=middle;whiteSpace=wrap;rounded=0;" parent="1" vertex="1">
          <mxGeometry x="94" y="31" width="299" height="30" as="geometry" />
        </mxCell>
        <mxCell id="xqiuKEbKWLVrD_F_vzsZ-6" value="crm_prd_info" style="swimlane;fontStyle=0;childLayout=stackLayout;horizontal=1;startSize=30;horizontalStack=0;resizeParent=1;resizeParentMax=0;resizeLast=0;collapsible=1;marginBottom=0;whiteSpace=wrap;html=1;rounded=1;swimlaneLine=1;fillColor=#dae8fc;strokeColor=#6c8ebf;fontSize=24;arcSize=14;" parent="1" vertex="1">
          <mxGeometry x="428" y="256" width="235" height="106" as="geometry" />
        </mxCell>
        <mxCell id="xqiuKEbKWLVrD_F_vzsZ-7" value="prd_key" style="text;align=left;verticalAlign=middle;spacingLeft=4;spacingRight=4;overflow=hidden;points=[[0,0.5],[1,0.5]];portConstraint=eastwest;rotatable=0;whiteSpace=wrap;html=1;fontSize=24;" parent="xqiuKEbKWLVrD_F_vzsZ-6" vertex="1">
          <mxGeometry y="30" width="235" height="40" as="geometry" />
        </mxCell>
        <mxCell id="8cTHT5fYYTfpAbhlSFfg-3" value="&lt;font style=&quot;font-size: 20px;&quot;&gt;&lt;b&gt;PRODUCT&lt;/b&gt;&lt;/font&gt;" style="text;html=1;strokeColor=#b85450;fillColor=#f8cecc;align=center;verticalAlign=middle;whiteSpace=wrap;overflow=hidden;" parent="xqiuKEbKWLVrD_F_vzsZ-6" vertex="1">
          <mxGeometry y="70" width="235" height="36" as="geometry" />
        </mxCell>
      </root>
    </mxGraphModel>
  </diagram>
</mxfile>
